HIERARCHY
ROOT hip
{
  OFFSET 0 0 0
  CHANNELS 6 Xposition Yposition Zposition Zrotation Yrotation Xrotation
  JOINT abdomen
  {
    OFFSET 0 20.6881 -0.73152
    CHANNELS 3 Zrotation Xrotation Yrotation
    JOINT chest
    {
      OFFSET 0 11.7043 -0.48768
      CHANNELS 3 Zrotation Xrotation Yrotation
      JOINT neck
      {
        OFFSET 0 22.1894 -2.19456
        CHANNELS 3 Zrotation Xrotation Yrotation
        JOINT head
        {
          OFFSET -0.24384 7.07133 1.2192
          CHANNELS 3 Zrotation Xrotation Yrotation
          JOINT leftEye
          {
            OFFSET 4.14528 8.04674 8.04672
            CHANNELS 3 Zrotation Xrotation Yrotation
            End Site
            {
              OFFSET 1 0 0
            }
          }
          JOINT rightEye
          {
            OFFSET -3.6576 8.04674 8.04672
            CHANNELS 3 Zrotation Xrotation Yrotation
            End Site
            {
              OFFSET 1 0 0
            }
          }
        }
      }
      JOINT rCollar
      {
        OFFSET -2.68224 19.2634 -4.8768
        CHANNELS 3 Zrotation Xrotation Yrotation
        JOINT rShldr
        {
          OFFSET -8.77824 -1.95073 1.46304
          CHANNELS 3 Zrotation Xrotation Yrotation
          JOINT rForeArm
          {
            OFFSET -28.1742 -1.7115 0.48768
            CHANNELS 3 Zrotation Xrotation Yrotation
            JOINT rHand
            {
              OFFSET -22.5879 0.773209 7.07136
              CHANNELS 3 Zrotation Xrotation Yrotation
              JOINT rThumb1
              {
                OFFSET -1.2192 -0.487915 3.41376
                CHANNELS 3 Zrotation Xrotation Yrotation
                JOINT rThumb2
                {
                  OFFSET -3.37035 -0.52449 3.41376
                  CHANNELS 3 Zrotation Xrotation Yrotation
                  End Site
                  {
                    OFFSET -1.78271 -1.18214 1.43049
                  }
                }
              }
              JOINT rIndex1
              {
                OFFSET -7.75947 0.938293 5.60832
                CHANNELS 3 Zrotation Xrotation Yrotation
                JOINT rIndex2
                {
                  OFFSET -2.54057 -0.884171 1.56538
                  CHANNELS 3 Zrotation Xrotation Yrotation
                  End Site
                  {
                    OFFSET -1.62519 -0.234802 1.16502
                  }
                }
              }
              JOINT rMid1
              {
                OFFSET -8.24714 1.18213 3.41376
                CHANNELS 3 Zrotation Xrotation Yrotation
                JOINT rMid2
                {
                  OFFSET -3.10165 -0.590103 1.0647
                  CHANNELS 3 Zrotation Xrotation Yrotation
                  End Site
                  {
                    OFFSET -2.48547 -0.328903 0.83742
                  }
                }
              }
              JOINT rRing1
              {
                OFFSET -8.82822 0.546677 1.51678
                CHANNELS 3 Zrotation Xrotation Yrotation
                JOINT rRing2
                {
                  OFFSET -2.60934 -0.819778 -0.0198488
                  CHANNELS 3 Zrotation Xrotation Yrotation
                  End Site
                  {
                    OFFSET -2.33842 -0.294052 0.168128
                  }
                }
              }
              JOINT rPinky1
              {
                OFFSET -8.27202 -0.0477905 -0.4584
                CHANNELS 3 Zrotation Xrotation Yrotation
                JOINT rPinky2
                {
                  OFFSET -1.82734 -0.647385 -0.700984
                  CHANNELS 3 Zrotation Xrotation Yrotation
                  End Site
                  {
                    OFFSET -1.69225 -0.51767 -0.607171
                  }
                }
              }
            }
          }
        }
      }
      JOINT lCollar
      {
        OFFSET 2.68224 19.2634 -4.8768
        CHANNELS 3 Zrotation Xrotation Yrotation
        JOINT lShldr
        {
          OFFSET 8.77824 -1.95073 1.46304
          CHANNELS 3 Zrotation Xrotation Yrotation
          JOINT lForeArm
          {
            OFFSET 28.1742 -1.7115 0.48768
            CHANNELS 3 Zrotation Xrotation Yrotation
            JOINT lHand
            {
              OFFSET 22.5879 0.773209 7.07136
              CHANNELS 3 Zrotation Xrotation Yrotation
              JOINT lThumb1
              {
                OFFSET 1.2192 -0.487915 3.41376
                CHANNELS 3 Zrotation Xrotation Yrotation
                JOINT lThumb2
                {
                  OFFSET 3.37035 -0.52449 3.41376
                  CHANNELS 3 Zrotation Xrotation Yrotation
                  End Site
                  {
                    OFFSET 1.78271 -1.18214 1.43049
                  }
                }
              }
              JOINT lIndex1
              {
                OFFSET 7.75947 0.938293 5.60832
                CHANNELS 3 Zrotation Xrotation Yrotation
                JOINT lIndex2
                {
                  OFFSET 2.54057 -0.884171 1.56538
                  CHANNELS 3 Zrotation Xrotation Yrotation
                  End Site
                  {
                    OFFSET 1.62519 -0.234802 1.16502
                  }
                }
              }
              JOINT lMid1
              {
                OFFSET 8.24714 1.18213 3.41376
                CHANNELS 3 Zrotation Xrotation Yrotation
                JOINT lMid2
                {
                  OFFSET 3.10165 -0.590103 1.0647
                  CHANNELS 3 Zrotation Xrotation Yrotation
                  End Site
                  {
                    OFFSET 2.48547 -0.328903 0.83742
                  }
                }
              }
              JOINT lRing1
              {
                OFFSET 8.82822 0.546677 1.51678
                CHANNELS 3 Zrotation Xrotation Yrotation
                JOINT lRing2
                {
                  OFFSET 2.60934 -0.819778 -0.0198488
                  CHANNELS 3 Zrotation Xrotation Yrotation
                  End Site
                  {
                    OFFSET 2.33842 -0.294052 0.168128
                  }
                }
              }
              JOINT lPinky1
              {
                OFFSET 8.27202 -0.0477905 -0.4584
                CHANNELS 3 Zrotation Xrotation Yrotation
                JOINT lPinky2
                {
                  OFFSET 1.82734 -0.647385 -0.700984
                  CHANNELS 3 Zrotation Xrotation Yrotation
                  End Site
                  {
                    OFFSET 1.69225 -0.51767 -0.607171
                  }
                }
              }
            }
          }
        }
      }
    }
  }
  JOINT rButtock
  {
    OFFSET -8.77824 4.35084 1.2192
    CHANNELS 3 Zrotation Xrotation Yrotation
    JOINT rThigh
    {
      OFFSET 0 -1.70687 -2.19456
      CHANNELS 3 Zrotation Xrotation Yrotation
      JOINT rShin
      {
        OFFSET 0 -36.8199 0.73152
        CHANNELS 3 Zrotation Xrotation Yrotation
        JOINT rFoot
        {
          OFFSET 0.73152 -45.1104 -5.12064
          CHANNELS 3 Zrotation Xrotation Yrotation
          End Site
          {
            OFFSET -1.1221 -3.69964 12.103
          }
        }
      }
    }
  }
  JOINT lButtock
  {
    OFFSET 8.77824 4.35084 1.2192
    CHANNELS 3 Zrotation Xrotation Yrotation
    JOINT lThigh
    {
      OFFSET 0 -1.70687 -2.19456
      CHANNELS 3 Zrotation Xrotation Yrotation
      JOINT lShin
      {
        OFFSET 0 -36.8199 0.73152
        CHANNELS 3 Zrotation Xrotation Yrotation
        JOINT lFoot
        {
          OFFSET -0.73152 -45.1104 -5.12064
          CHANNELS 3 Zrotation Xrotation Yrotation
          End Site
          {
            OFFSET 1.1221 -3.69964 12.103
          }
        }
      }
    }
  }
}
MOTION
Frames:	4
Frame Time:	0.00833333
49.5744 85.1388 192.575 0.0 0.0 0.0 0.41059 -0.00336425 0.0117806 0.113459 -0.00539521 0.0196593 1.63415e-14 -1.59028e-15 -6.20067e-23 4.90408e-14 3.18055e-15 4.34841e-17 -0.0 0.0 0.0 -0.0 0.0 0.0 8.1988e-15 -1.55301e-18 1.49089e-16 1.74551e-13 3.10601e-16 1.59028e-15 2.95921e-12 -8.82206e-13 -3.81667e-14 3.38353e-11 8.9304e-13 7.95139e-14 7.98172e-11 1.96239e-14 1.01778e-13 1.37838e-10 2.54444e-14 1.69365e-13 7.98256e-11 2.22639e-14 8.90555e-14 7.73091 5.47488 0.417314 7.98173e-11 2.05742e-14 9.85972e-14 2.90554 0.965183 0.102902 7.98284e-11 2.0276e-14 1.00983e-13 10.2786 0.731801 0.0259123 7.98206e-11 1.94809e-14 1.01778e-13 2.22167 -0.733487 -0.20892 8.20147e-15 -9.70628e-19 -1.49089e-16 1.69447e-13 2.17421e-16 1.98785e-16 2.95384e-12 8.86778e-13 -1.59028e-14 3.38433e-11 -8.81262e-13 7.63333e-14 7.98266e-11 9.47346e-15 1.01778e-13 1.37862e-10 1.59028e-14 1.7016e-13 7.982e-11 1.15295e-14 1.04958e-13 -7.73091 5.47488 -0.417314 7.9827e-11 1.00386e-14 1.01778e-13 -2.90554 0.965183 -0.102902 7.98189e-11 1.02374e-14 1.03368e-13 -10.2786 0.731801 -0.0259123 7.98262e-11 1.07344e-14 9.54166e-14 -2.22167 -0.733487 0.20892 -2.03217e-16 0.0 -3.88251e-19 0.770602 -4.17183 -0.0656815 -0.00265485 2.00555 -0.0182701 -0.461827 2.16687 0.0961005 2.03217e-16 0.0 3.88251e-19 -0.143237 -2.55995 0.0260685 0.00716322 -0.914091 0.062172 0.453776 3.47457 -0.121225
49.9395 83.4605 187.05 178.59 -0.2157 -152.687 -1.51749 -8.86444 -0.364742 0.854755 3.68223 -0.192703 -0.507555 2.32862 -0.860128 2.3225 -5.44851 -1.32159 -0.0 0.0 0.0 -0.0 0.0 0.0 1.22068e-14 -2.28227e-14 6.55368e-16 22.9762 1.28345 -1.50846 -4.32801 -1.98847 6.73597 0.00534984 1.6226 0.227712 -1.3257e-10 1.96165e-10 -2.16417e-10 -2.30821e-10 3.4014e-10 -3.73341e-10 -1.32564e-10 1.96168e-10 -2.16426e-10 7.73091 5.47488 0.417314 -1.32571e-10 1.96166e-10 -2.16416e-10 2.90554 0.965183 0.102902 -1.32561e-10 1.96165e-10 -2.16415e-10 10.2786 0.731801 0.0259123 -1.32569e-10 1.96165e-10 -2.16412e-10 2.22167 -0.733487 -0.20892 1.21785e-14 -2.28252e-14 3.82039e-16 -21.3886 2.10432 0.39311 2.30349 -0.830966 -3.7981 -0.0356297 4.19404 -0.583766 -8.48755e-11 3.96176e-11 1.94989e-10 -1.44062e-10 6.93598e-11 3.39441e-10 -8.4879e-11 3.9619e-11 1.94996e-10 -7.73091 5.47488 -0.417314 -8.48744e-11 3.96187e-11 1.94989e-10 -2.90554 0.965183 -0.102902 -8.48826e-11 3.96192e-11 1.94989e-10 -10.2786 0.731801 -0.0259123 -8.48739e-11 3.962e-11 1.9498e-10 -2.22167 -0.733487 0.20892 -2.03217e-16 0.0 -3.88251e-19 0.685299 -11.1008 1.73696 0.00332921 3.83578 0.0391368 -0.695864 -2.71511 -2.64748 2.03217e-16 0.0 3.88251e-19 0.464454 -9.53356 -2.82866 0.00547865 1.51178 0.0160206 0.527038 0.957193 1.42007
49.9262 83.4604 187.058 178.529 -0.2423 -152.647 -3.69356 -18.2317 -0.797123 1.67007 7.58241 -0.420884 -0.96079 4.79002 -1.77649 4.48414 -11.2071 -2.76582 -0.0 0.0 0.0 -0.0 0.0 0.0 1.61358e-14 -5.23775e-14 7.45443e-16 47.3374 2.63614 -3.09861 -8.39718 -3.99783 13.8804 -0.00304301 3.33926 0.469243 -3.6157e-10 4.03622e-10 -4.44952e-10 -6.28323e-10 6.99927e-10 -7.67609e-10 -3.61565e-10 4.03625e-10 -4.44958e-10 7.73091 5.47488 0.417314 -3.61572e-10 4.03622e-10 -4.44947e-10 2.90554 0.965183 0.102902 -3.61562e-10 4.03622e-10 -4.44947e-10 10.2786 0.731801 0.0259123 -3.6157e-10 4.03621e-10 -4.44942e-10 2.22167 -0.733487 -0.20892 1.60746e-14 -5.23835e-14 4.96962e-16 -44.0336 4.30675 0.807545 4.61526 -1.69533 -7.80946 0.0207656 8.64991 -1.21471 -2.47571e-10 8.24761e-11 4.02403e-10 -4.22335e-10 1.44411e-10 7.00479e-10 -2.47571e-10 8.24769e-11 4.02414e-10 -7.73091 5.47488 -0.417314 -2.47569e-10 8.24779e-11 4.02403e-10 -2.90554 0.965183 -0.102902 -2.47578e-10 8.24787e-11 4.02403e-10 -10.2786 0.731801 -0.0259123 -2.47567e-10 8.24798e-11 4.02391e-10 -2.22167 -0.733487 0.20892 -2.03217e-16 0.0 -3.88251e-19 1.08654 -18.4006 3.76617 0.00571535 5.77169 0.100158 -1.45431 -7.84724 -5.58924 2.03217e-16 0.0 3.88251e-19 0.314845 -16.8416 -6.02843 0.00798376 4.07572 -0.0328493 0.751631 -1.70244 3.05004
49.9231 83.4626 187.079 178.518 -0.2591 -152.6 -5.75788 -26.5818 -1.23531 2.42065 11.0569 -0.627889 -1.31167 6.97955 -2.59752 6.18722 -16.31 -4.11264 -0.0 0.0 0.0 -0.0 0.0 0.0 2.02228e-14 -6.8465e-14 1.66793e-15 69.1314 3.83968 -4.53445 -11.608 -5.6363 20.2981 -0.0227611 4.8675 0.685332 -5.57346e-10 5.88456e-10 -6.49454e-10 -9.6814e-10 1.02037e-09 -1.12036e-09 -5.57342e-10 5.88459e-10 -6.49457e-10 7.73091 5.47488 0.417314 -5.57349e-10 5.88455e-10 -6.49445e-10 2.90554 0.965183 0.102902 -5.57339e-10 5.88455e-10 -6.49446e-10 10.2786 0.731801 0.0259123 -5.57348e-10 5.88455e-10 -6.4944e-10 2.22167 -0.733487 -0.20892 2.01326e-14 -6.84738e-14 1.44429e-15 -64.2529 6.31178 1.18572 6.58213 -2.44912 -11.4037 0.154821 12.5768 -1.78956 -4.1428e-10 1.18834e-10 5.84763e-10 -7.07911e-10 2.08048e-10 1.01798e-09 -4.14277e-10 1.18834e-10 5.84777e-10 -7.73091 5.47488 -0.417314 -4.14277e-10 1.18836e-10 5.84763e-10 -2.90554 0.965183 -0.102902 -4.14286e-10 1.18837e-10 5.84762e-10 -10.2786 0.731801 -0.0259123 -4.14274e-10 1.18838e-10 5.84748e-10 -2.22167 -0.733487 0.20892 -2.03217e-16 0.0 -3.88251e-19 1.93925 -24.8622 5.7818 0.00421036 7.49623 0.15499 -2.58767 -12.3604 -8.31975 2.03217e-16 0.0 3.88251e-19 -0.557206 -23.2465 -9.17097 0.0138685 6.36351 -0.0767562 1.07995 -4.06411 4.51301
